HIERARCHY
ROOT Hips
{
	OFFSET -0.001795 -0.223333 0.028219
	CHANNELS 6 Xposition Yposition Zposition Zrotation Yrotation Xrotation 
	JOINT LeftUpLeg
	{
		OFFSET 0.069520 -0.091406 -0.006815
		CHANNELS 3 Zrotation Yrotation Xrotation
		JOINT LeftLeg
		{
			OFFSET 0.034277 -0.375199 -0.004496
			CHANNELS 3 Zrotation Yrotation Xrotation
			JOINT LeftFoot
			{
				OFFSET -0.013596 -0.397961 -0.043693
				CHANNELS 3 Zrotation Yrotation Xrotation
				JOINT LeftToe
				{
					OFFSET 0.026358 -0.055791 0.119288
					CHANNELS 3 Zrotation Yrotation Xrotation
					End Site
					{
						OFFSET 0.000000 0.000000 0.000000
					}
				}
			}
		}
	}
	JOINT RightUpLeg
	{
		OFFSET -0.067670 -0.090522 -0.004320
		CHANNELS 3 Zrotation Yrotation Xrotation
		JOINT RightLeg
		{
			OFFSET -0.038290 -0.382569 -0.008850
			CHANNELS 3 Zrotation Yrotation Xrotation
			JOINT RightFoot
			{
				OFFSET 0.015774 -0.398415 -0.042312
				CHANNELS 3 Zrotation Yrotation Xrotation
				JOINT RightToe
				{
					OFFSET -0.025372 -0.048144 0.123348
					CHANNELS 3 Zrotation Yrotation Xrotation
					End Site
					{
						OFFSET 0.000000 0.000000 0.000000
					}
				}
			}
		}
	}
	JOINT Spine
	{
		OFFSET -0.002533 0.108963 -0.026696
		CHANNELS 3 Zrotation Yrotation Xrotation
		JOINT Spine1
		{
			OFFSET 0.005487 0.135180 0.001092
			CHANNELS 3 Zrotation Yrotation Xrotation
			JOINT Spine2
			{
				OFFSET 0.001457 0.052922 0.025425
				CHANNELS 3 Zrotation Yrotation Xrotation
				JOINT Neck
				{
					OFFSET -0.002778 0.213870 -0.042857
					CHANNELS 3 Zrotation Yrotation Xrotation
					JOINT Head
					{
						OFFSET 0.005152 0.064970 0.051349
						CHANNELS 3 Zrotation Yrotation Xrotation
						End Site
						{
							OFFSET 0.000000 0.000000 0.000000
						}
					}
				}
				JOINT LeftShoulder
				{
					OFFSET 0.078845 0.121749 -0.034090
					CHANNELS 3 Zrotation Yrotation Xrotation
					JOINT LeftArm
					{
						OFFSET 0.090977 0.030469 -0.008868
						CHANNELS 3 Zrotation Yrotation Xrotation
						JOINT LeftForeArm
						{
							OFFSET 0.259612 -0.012772 -0.027456
							CHANNELS 3 Zrotation Yrotation Xrotation
							JOINT LeftHand
							{
								OFFSET 0.249234 0.008986 -0.001171
								CHANNELS 3 Zrotation Yrotation Xrotation
								End Site
								{
									OFFSET 0.000000 0.000000 0.000000
								}
							}
						}
					}
				}
				JOINT RightShoulder
				{
					OFFSET -0.081759 0.118833 -0.038615
					CHANNELS 3 Zrotation Yrotation Xrotation
					JOINT RightArm
					{
						OFFSET -0.096012 0.032551 -0.009143
						CHANNELS 3 Zrotation Yrotation Xrotation
						JOINT RightForeArm
						{
							OFFSET -0.253742 -0.013329 -0.021401
							CHANNELS 3 Zrotation Yrotation Xrotation
							JOINT RightHand
							{
								OFFSET -0.255298 0.007772 -0.005559
								CHANNELS 3 Zrotation Yrotation Xrotation
								End Site
								{
									OFFSET 0.000000 0.000000 0.000000
								}
							}
						}
					}
				}
			}
		}
	}
}
MOTION
Frames: 13
Frame Time: 0.050000
0.110723 1.024851 0.094665 -1.822600 25.312529 1.560728 2.917611 -0.382392 -3.511458 -4.221080 -0.589036 16.800060 1.191247 10.518527 15.847461 0.000000 0.000000 0.000000 0.154593 1.095368 -20.692135 -3.263397 -0.295522 29.182630 8.907738 11.346712 19.113769 0.000000 0.000000 0.000000 -3.795633 -0.726333 16.459378 6.549272 -0.370537 -29.217607 -8.887892 -17.262609 34.123021 -0.532046 1.138074 -23.229945 0.000000 0.000000 0.000000 -22.418581 3.111717 -2.532834 -43.544385 -15.821508 -2.626711 -69.071645 -70.515805 58.719233 0.000000 0.000000 0.000000 1.539298 -7.750432 -3.039511 50.667353 -14.255870 -13.113010 90.338740 64.752146 70.044940 0.000000 0.000000 0.000000 
0.115072 1.004231 0.098465 -1.564778 26.286201 1.408167 3.076704 -0.371879 -3.149395 -4.138630 -0.542487 15.665896 2.179688 11.796115 15.503510 0.000000 0.000000 0.000000 -0.264311 0.940337 -21.445195 -2.118883 -0.856706 29.022258 12.625988 18.966257 15.685879 0.000000 0.000000 0.000000 -3.937959 -0.813721 17.281218 6.329683 -0.338352 -29.440070 -11.457517 -18.613086 34.111615 0.543931 0.068937 -19.970567 0.000000 0.000000 0.000000 -23.402811 4.603582 -3.298338 -43.456648 -15.219789 -2.831062 -48.850459 -63.216528 37.019549 0.000000 0.000000 0.000000 -1.152445 -9.072668 -3.198354 51.447306 -16.008926 -13.955376 100.803440 62.230524 76.828927 0.000000 0.000000 0.000000 
0.117889 0.965353 0.098984 -1.771985 29.161077 0.295060 3.128087 -0.382722 -3.125020 -2.554380 -1.241484 18.389825 0.232210 5.755393 7.977692 0.000000 0.000000 0.000000 1.929103 1.259280 -21.616884 -4.089459 -0.410317 29.154548 14.076904 23.697329 11.608874 0.000000 0.000000 0.000000 -4.609593 -1.036876 19.449348 7.076440 -0.437122 -29.562420 -12.164187 -19.078223 34.333253 -0.163442 0.576466 -18.543159 0.000000 0.000000 0.000000 -24.382081 2.555886 -2.481858 -44.025631 -15.035964 -2.842488 -31.247106 -57.576922 21.917463 0.000000 0.000000 0.000000 1.930712 -10.005993 -3.952280 50.293012 -16.508800 -13.769985 104.447653 62.800629 81.847200 0.000000 0.000000 0.000000 
0.118084 0.917137 0.093895 -0.610282 30.374893 -1.638669 3.736518 -0.590129 -6.174892 -6.690134 -1.930913 29.524728 2.955997 3.066585 -3.545104 0.000000 0.000000 0.000000 4.179346 1.660461 -22.366308 -8.375913 0.683627 33.956156 13.646190 29.644358 1.299295 0.000000 0.000000 0.000000 -6.178173 -1.528820 24.993020 6.404051 -0.278523 -31.451514 -11.032733 -16.909042 35.803723 -1.346506 1.983367 -22.606789 0.000000 0.000000 0.000000 -28.678317 1.531404 -2.963057 -40.922922 -16.851285 -2.164731 -22.701668 -52.289695 14.523413 0.000000 0.000000 0.000000 4.802569 -8.729662 -3.605451 50.774773 -12.204711 -12.529358 97.547439 66.844375 81.330045 0.000000 0.000000 0.000000 
0.117721 0.882401 0.087452 -0.255632 32.639593 -2.581117 3.800407 -1.132201 -12.089137 -11.056368 -2.793342 41.502493 6.411775 7.878878 -8.007341 0.000000 0.000000 0.000000 5.077391 1.713538 -24.933978 -9.508286 0.289813 39.255552 9.102118 25.026267 -6.755093 0.000000 0.000000 0.000000 -6.961851 -1.999208 28.138699 6.155884 -0.189689 -28.916467 -8.705221 -14.515357 32.376277 -2.007984 3.128919 -24.759611 0.000000 0.000000 0.000000 -29.945187 -1.595322 -2.560187 -41.107219 -18.598276 -0.821903 -16.971878 -46.510634 9.496894 0.000000 0.000000 0.000000 6.354437 -4.671059 -1.715524 54.500538 -8.092837 -11.441682 69.141443 68.995863 58.913119 0.000000 0.000000 0.000000 
0.120629 0.867739 0.085076 -0.011807 34.983346 -2.816997 2.173771 -1.650484 -15.333739 -13.795315 -3.270569 47.698143 10.198568 16.789463 -7.570950 0.000000 0.000000 0.000000 5.799721 1.678093 -26.323898 -11.222608 0.405688 41.310803 7.201931 21.246035 -9.181716 0.000000 0.000000 0.000000 -7.514470 -2.326705 29.635912 5.399972 0.021924 -27.483476 -6.202035 -11.359516 29.984290 -0.542956 3.059545 -26.100980 0.000000 0.000000 0.000000 -30.148253 -4.444341 -2.678270 -42.139637 -17.070761 -0.524695 -18.085318 -44.103602 8.781209 0.000000 0.000000 0.000000 10.892532 -0.295829 0.800919 54.536041 -1.467338 -8.620217 41.173623 65.971228 35.426506 0.000000 0.000000 0.000000 
0.128253 0.871698 0.086593 0.605077 38.224295 -1.959337 0.108280 -1.980568 -16.256138 -13.147836 -4.314728 47.689237 11.327998 19.720764 -4.446002 0.000000 0.000000 0.000000 5.559394 1.379706 -25.960596 -12.251017 0.336157 40.220740 6.009813 16.817464 -8.408212 0.000000 0.000000 0.000000 -7.313011 -2.502885 28.968143 4.731822 0.224226 -27.507235 -4.964869 -8.381499 28.884491 -0.953112 4.048513 -24.192167 0.000000 0.000000 0.000000 -28.553843 -6.385854 -3.403961 -44.211051 -14.429452 -0.753445 -24.780346 -45.898357 11.245779 0.000000 0.000000 0.000000 13.917812 2.320818 3.172387 53.245479 1.536927 -7.266049 33.700981 61.352289 28.122816 0.000000 0.000000 0.000000 
0.139245 0.887653 0.089211 1.640001 42.012120 -0.182102 -1.445159 -2.035134 -15.795315 -11.742695 -4.945480 44.318864 10.533697 18.718450 -1.116989 0.000000 0.000000 0.000000 4.967990 0.971888 -25.241277 -13.392890 0.303335 38.503939 5.076975 12.361028 -4.725595 0.000000 0.000000 0.000000 -5.612094 -2.820021 27.583301 2.722955 0.731807 -27.542046 -3.792400 -8.494861 27.995135 -2.066088 5.085199 -23.772307 0.000000 0.000000 0.000000 -26.719524 -6.611042 -4.044264 -46.954165 -12.635434 -1.218117 -31.431126 -47.307407 14.019999 0.000000 0.000000 0.000000 13.024072 1.932222 3.262534 54.776881 2.886877 -6.481193 33.000992 57.948265 26.311394 0.000000 0.000000 0.000000 
0.150817 0.904451 0.091576 3.451205 45.073201 1.478554 -2.872598 -1.841400 -14.320011 -10.671387 -5.118305 41.162861 8.275851 15.574664 1.519352 0.000000 0.000000 0.000000 4.204956 0.621694 -24.295798 -14.096149 0.232529 36.920017 2.944656 6.163567 1.123679 0.000000 0.000000 0.000000 -4.607122 -2.974525 26.623718 1.349026 1.018358 -28.338489 -4.041835 -8.197086 28.901143 -1.914948 5.336961 -23.168077 0.000000 0.000000 0.000000 -24.359905 -8.110485 -3.564906 -49.001438 -13.420319 -1.018792 -34.749675 -48.621363 15.421004 0.000000 0.000000 0.000000 13.704839 1.170033 3.488149 54.491673 2.538909 -6.725206 32.755950 57.345254 26.378705 0.000000 0.000000 0.000000 
0.159871 0.916154 0.092700 5.197385 48.916283 4.258957 -3.277319 -2.014096 -14.957459 -12.315816 -4.599347 38.806241 8.297962 16.977011 5.073349 0.000000 0.000000 0.000000 3.799547 0.116393 -25.037298 -14.092220 -0.188459 35.804118 -1.288149 -2.420641 7.057357 0.000000 0.000000 0.000000 -3.186349 -3.351376 26.106081 -1.296582 1.435481 -28.616573 -3.816186 -10.579733 28.618756 -3.354425 6.214902 -24.591036 0.000000 0.000000 0.000000 -22.460998 -8.689742 -2.823663 -50.188923 -15.429874 -0.523705 -34.728312 -51.960746 16.560470 0.000000 0.000000 0.000000 12.328756 -1.198282 2.017315 54.759609 0.392069 -7.364899 38.794003 56.311361 29.885165 0.000000 0.000000 0.000000 
0.165350 0.923624 0.093272 6.974822 54.076420 6.344592 -3.742397 -2.065550 -15.042864 -15.546633 -4.477169 38.514796 11.600900 21.362005 5.654110 0.000000 0.000000 0.000000 4.443318 -0.221667 -25.452417 -15.394121 -0.480071 35.228666 -6.813954 -11.051558 14.625992 0.000000 0.000000 0.000000 -2.969542 -3.748778 26.268692 -0.940129 1.484944 -27.907011 -4.795987 -12.461267 27.355229 -4.378579 6.895710 -26.369591 0.000000 0.000000 0.000000 -22.208981 -11.185222 -1.976315 -52.710447 -22.127476 2.591384 -25.242282 -51.857984 11.595133 0.000000 0.000000 0.000000 13.083620 -1.559362 2.201006 52.812170 -2.859024 -8.546172 44.306382 56.629994 33.716050 0.000000 0.000000 0.000000 
0.168589 0.930382 0.094781 8.295686 59.261604 8.116501 -2.833732 -2.098280 -15.487468 -23.860414 -4.150235 41.942318 15.620531 26.136983 3.882212 0.000000 0.000000 0.000000 5.306517 -0.469714 -25.644275 -16.046732 -0.769096 33.752610 -13.035942 -18.088354 24.242526 0.000000 0.000000 0.000000 -2.583227 -4.171705 26.304539 -0.354866 1.237191 -29.344935 -6.076527 -15.661082 28.567931 -4.264336 6.925759 -27.963690 0.000000 0.000000 0.000000 -21.395936 -13.995841 -0.552898 -56.072755 -28.313173 5.655874 -12.748038 -52.408510 5.591746 0.000000 0.000000 0.000000 10.235345 -2.913234 1.082412 54.947745 -7.409616 -10.268175 50.578344 54.919249 37.436397 0.000000 0.000000 0.000000 
0.171139 0.943381 0.097428 8.788900 64.253188 9.368498 -1.500069 -1.556586 -13.541080 -28.734771 -4.370014 43.059704 15.937124 25.976815 3.418261 0.000000 0.000000 0.000000 6.371123 -0.687369 -25.958446 -17.763836 -0.544791 31.705873 -15.656618 -17.812339 37.205965 0.000000 0.000000 0.000000 -2.280168 -4.440791 25.957129 -0.364097 1.320794 -28.669207 -6.350688 -19.885476 27.547976 -4.451431 6.881533 -28.945437 0.000000 0.000000 0.000000 -21.270776 -13.222223 -0.754110 -61.097655 -34.348343 9.538293 -7.479679 -50.709542 3.198092 0.000000 0.000000 0.000000 8.284024 -4.103171 0.041021 54.898733 -12.268092 -11.842199 56.840818 51.088389 38.366123 0.000000 0.000000 0.000000 
